<svg width="1440" height="320" viewBox="0 0 1440 320" fill="none" xmlns="http://www.w3.org/2000/svg">
<path d="M0 192L34.3 186.7C68.6 181 137 171 206 186.7C274.3 203 343 245 411 240C480 235 549 181 617 176C685.7 171 754 213 823 240C891.4 267 960 277 1029 250.7C1097.1 224 1166 160 1234 138.7C1302.9 117 1371 139 1406 149.3L1440 160V320H1405.7C1371.4 320 1303 320 1234 320C1165.7 320 1097 320 1029 320C960 320 891 320 823 320C754.3 320 686 320 617 320C548.6 320 480 320 411 320C342.9 320 274 320 206 320C137.1 320 69 320 34 320H0V192Z" fill="url(#paint0_linear)"/>
<defs>
<linearGradient id="paint0_linear" x1="-123.813" y1="224.733" x2="1543.25" y2="224.733" gradientUnits="userSpaceOnUse">
<stop stop-color="#6AC65E"/>
<stop offset="1" stop-color="#AFD986"/>
</linearGradient>
</defs>
</svg>
