<svg width="460" height="460" viewBox="0 0 460 460" fill="none" xmlns="http://www.w3.org/2000/svg">
<path d="M443.885 252.843L429.098 227.232C418.352 208.616 394.548 202.237 375.93 212.985C357.314 223.733 350.935 247.538 361.684 266.154L376.471 291.766C387.157 310.275 380.031 326.615 376.471 332.781C372.911 338.947 362.323 353.288 340.95 353.288H338.948C337.028 353.288 335.471 351.732 335.471 349.812C335.471 330.592 314.083 319.101 298.057 329.709L244.552 365.127C225.15 377.971 225.15 406.45 244.552 419.294L298.057 454.712C314.083 465.32 335.471 453.828 335.471 434.609C335.471 432.69 337.027 431.133 338.948 431.133H340.95C383.92 431.133 422.402 408.915 443.886 371.702C465.372 334.49 465.371 290.056 443.885 252.843Z" fill="url(#paint0_linear)"/>
<path d="M375.93 212.985C357.314 223.733 350.935 247.538 361.684 266.154L376.471 291.766C387.157 310.275 380.031 326.615 376.471 332.781C372.911 338.947 362.323 353.288 340.95 353.288C451.619 353.288 462.541 285.155 443.885 252.842L429.098 227.231C418.352 208.616 394.548 202.237 375.93 212.985Z" fill="url(#paint1_linear)"/>
<path d="M338.687 63.6788C337.024 64.6392 334.898 64.0692 333.938 62.4061L332.936 60.6724C311.451 23.4582 272.97 1.24072 230 1.24164C187.029 1.24164 148.549 23.4591 127.064 60.6724L112.278 86.283C101.53 104.898 107.907 128.703 126.524 139.452C145.14 150.199 168.945 143.821 179.693 125.204L194.48 99.5928C205.166 81.0855 222.88 79.0861 230 79.087C237.12 79.087 254.834 81.0846 265.521 99.5955L266.522 101.33C267.483 102.992 266.913 105.119 265.25 106.079C248.605 115.688 249.348 139.957 266.547 148.531L323.973 177.16C344.797 187.541 369.461 173.301 370.883 150.076L374.803 86.031C375.977 66.8466 355.331 54.0702 338.687 63.6788Z" fill="url(#paint2_linear)"/>
<path d="M126.524 139.453C145.14 150.201 168.945 143.822 179.693 125.206L194.48 99.5946C205.166 81.0856 222.88 79.0861 230 79.087C237.12 79.087 254.834 81.0846 265.521 99.5955C210.186 3.7524 145.72 28.3606 127.064 60.6733L112.278 86.2848C101.529 104.899 107.907 128.704 126.524 139.453Z" fill="url(#paint3_linear)"/>
<path d="M125.586 93.4707C132.818 97.6455 142.065 95.1678 146.24 87.937L153.251 75.7928C157.041 69.2282 166.473 62.1632 178.225 62.1632C189.955 62.1632 202.664 69.0641 215.118 81.7902C221.179 79.5168 226.717 79.087 230 79.0879C237.12 79.0879 254.834 81.0855 265.521 99.5964C210.186 3.75239 145.72 28.3606 127.064 60.6733L120.053 72.8175C115.878 80.0492 118.356 89.2959 125.586 93.4707Z" fill="#1AB858"/>
<path d="M148.624 353.289H119.05C97.6777 353.289 87.0894 338.949 83.5304 332.782C79.9704 326.616 72.8432 310.276 83.5304 291.766L84.532 290.032C85.4923 288.369 87.6182 287.8 89.2804 288.759C105.925 298.369 126.571 285.591 125.397 266.408L121.477 202.362C120.056 179.138 95.3905 164.898 74.5668 175.279L17.142 203.906C-0.0576528 212.481 -0.799883 236.75 15.8435 246.359C17.5067 247.32 18.0757 249.446 17.1163 251.108L16.1147 252.842C-5.37056 290.057 -5.37056 334.491 16.1147 371.704C37.6 408.917 76.0815 431.134 119.051 431.133H148.625C170.12 431.134 187.546 413.709 187.547 392.21C187.546 370.715 170.12 353.289 148.624 353.289Z" fill="url(#paint4_linear)"/>
<path d="M187.546 392.211C187.546 370.715 170.119 353.289 148.623 353.289H119.049C97.6767 353.289 87.0885 338.949 83.5294 332.782C79.9694 326.616 72.8431 310.276 83.5294 291.766C28.1947 387.608 81.7389 431.134 119.05 431.134H148.624C170.119 431.134 187.546 413.709 187.546 392.211Z" fill="url(#paint5_linear)"/>
<defs>
<linearGradient id="paint0_linear" x1="345" y1="574.919" x2="345" y2="318.685" gradientUnits="userSpaceOnUse">
<stop stop-color="#7ED99E"/>
<stop offset="0.2532" stop-color="#81DAA3"/>
<stop offset="0.5725" stop-color="#88DDB3"/>
<stop offset="0.9261" stop-color="#95E2CD"/>
<stop offset="1" stop-color="#98E3D3"/>
</linearGradient>
<linearGradient id="paint1_linear" x1="396.095" y1="343.874" x2="396.095" y2="183.841" gradientUnits="userSpaceOnUse">
<stop stop-color="#6AC65E"/>
<stop offset="1" stop-color="#AFD986"/>
</linearGradient>
<linearGradient id="paint2_linear" x1="240.954" y1="278.681" x2="240.954" y2="66.9713" gradientUnits="userSpaceOnUse">
<stop stop-color="#7ED99E"/>
<stop offset="0.2532" stop-color="#81DAA3"/>
<stop offset="0.5725" stop-color="#88DDB3"/>
<stop offset="0.9261" stop-color="#95E2CD"/>
<stop offset="1" stop-color="#98E3D3"/>
</linearGradient>
<linearGradient id="paint3_linear" x1="227.552" y1="88.2989" x2="76.4764" y2="88.2989" gradientUnits="userSpaceOnUse">
<stop stop-color="#6AC65E"/>
<stop offset="1" stop-color="#AFD986"/>
</linearGradient>
<linearGradient id="paint4_linear" x1="-112.739" y1="301.483" x2="113.66" y2="301.483" gradientUnits="userSpaceOnUse">
<stop stop-color="#7ED99E"/>
<stop offset="0.2532" stop-color="#81DAA3"/>
<stop offset="0.5725" stop-color="#88DDB3"/>
<stop offset="0.9261" stop-color="#95E2CD"/>
<stop offset="1" stop-color="#98E3D3"/>
</linearGradient>
<linearGradient id="paint5_linear" x1="48.7408" y1="361.449" x2="196.71" y2="361.449" gradientUnits="userSpaceOnUse">
<stop stop-color="#6AC65E"/>
<stop offset="1" stop-color="#AFD986"/>
</linearGradient>
</defs>
</svg>
